<svg width="24" height="25" viewBox="0 0 24 25" fill="none" xmlns="http://www.w3.org/2000/svg">
<path d="M8 2.50293V5.50293" stroke="#9EAAC3" stroke-width="1.5" stroke-miterlimit="10" stroke-linecap="round" stroke-linejoin="round"/>
<path d="M16 2.50293V5.50293" stroke="#9EAAC3" stroke-width="1.5" stroke-miterlimit="10" stroke-linecap="round" stroke-linejoin="round"/>
<path d="M16 4.00293C19.33 4.18293 21 5.45293 21 10.1529V16.3329C21 20.4529 20 22.5129 15 22.5129H9C4 22.5129 3 20.4529 3 16.3329V10.1529C3 5.45293 4.67 4.19293 8 4.00293H16Z" stroke="#9EAAC3" stroke-width="1.5" stroke-miterlimit="10" stroke-linecap="round" stroke-linejoin="round"/>
<path d="M20.75 18.103H3.25" stroke="#9EAAC3" stroke-width="1.5" stroke-miterlimit="10" stroke-linecap="round" stroke-linejoin="round"/>
<path d="M12 8.75293C10.77 8.75293 9.73 9.42293 9.73 10.7229C9.73 11.3429 10.02 11.8129 10.46 12.1129C9.85 12.4729 9.5 13.0529 9.5 13.7329C9.5 14.9729 10.45 15.7429 12 15.7429C13.54 15.7429 14.5 14.9729 14.5 13.7329C14.5 13.0529 14.15 12.4629 13.53 12.1129C13.98 11.8029 14.26 11.3429 14.26 10.7229C14.26 9.42293 13.23 8.75293 12 8.75293ZM12 11.5929C11.48 11.5929 11.1 11.2829 11.1 10.7929C11.1 10.2929 11.48 10.0029 12 10.0029C12.52 10.0029 12.9 10.2929 12.9 10.7929C12.9 11.2829 12.52 11.5929 12 11.5929ZM12 14.5029C11.34 14.5029 10.86 14.1729 10.86 13.5729C10.86 12.9729 11.34 12.6529 12 12.6529C12.66 12.6529 13.14 12.9829 13.14 13.5729C13.14 14.1729 12.66 14.5029 12 14.5029Z" fill="#9EAAC3"/>
</svg>
