<svg width="201" height="200" viewBox="0 0 201 200" fill="none" xmlns="http://www.w3.org/2000/svg">
<rect x="0.5" width="200" height="200" rx="5" fill="#EFEFFF"/>
<g opacity="0.9">
<rect x="13" y="80.5" width="168" height="39" rx="3.5" stroke="#3439CA"/>
<path fill-rule="evenodd" clip-rule="evenodd" d="M32.5 96.6667C31.3954 96.6667 30.5 97.5622 30.5 98.6667V102.667C30.5 103.771 31.3954 104.667 32.5 104.667H40.5C41.6046 104.667 42.5 103.771 42.5 102.667V98.6667C42.5 97.5622 41.6046 96.6667 40.5 96.6667H32.5ZM33.8333 100.667C33.8333 102.14 35.0272 103.333 36.5 103.333C37.9728 103.333 39.1667 102.14 39.1667 100.667C39.1667 99.194 37.9728 98.0001 36.5 98.0001C35.0272 98.0001 33.8333 99.194 33.8333 100.667Z" fill="#3439CA"/>
<rect opacity="0.3" x="34.5" y="94.6667" width="4" height="1.33333" rx="0.666667" fill="#3439CA"/>
<path opacity="0.3" fill-rule="evenodd" clip-rule="evenodd" d="M36.4998 102C37.2362 102 37.8332 101.403 37.8332 100.667C37.8332 99.9302 37.2362 99.3333 36.4998 99.3333C35.7635 99.3333 35.1665 99.9302 35.1665 100.667C35.1665 101.403 35.7635 102 36.4998 102Z" fill="#3439CA"/>
<path d="M55.364 94.608V101.728C55.364 103.568 56.436 104.56 58.132 104.56C59.844 104.56 60.916 103.568 60.916 101.728V94.608H62.74V101.632C62.74 104.4 60.964 106.16 58.132 106.16C55.3 106.16 53.556 104.4 53.556 101.632V94.608H55.364ZM69.3973 97.648C71.5733 97.648 73.2853 99.168 73.2853 101.92C73.2853 104.576 71.6533 106.16 69.3973 106.16C68.1493 106.16 67.0613 105.648 66.5653 104.8V109.2H64.8213V97.808H66.4213L66.5653 99.056C67.0613 98.208 68.1173 97.648 69.3973 97.648ZM69.0453 104.608C70.4693 104.608 71.4773 103.6 71.4773 101.92C71.4773 100.24 70.4853 99.2 69.0453 99.2C67.6693 99.184 66.6133 100.24 66.6133 101.936C66.6133 103.616 67.6693 104.608 69.0453 104.608ZM76.8153 94.112V106H75.0713V94.112H76.8153ZM78.627 101.904C78.627 99.376 80.355 97.632 82.835 97.632C85.331 97.632 87.059 99.376 87.059 101.904C87.059 104.432 85.331 106.16 82.835 106.16C80.355 106.16 78.627 104.432 78.627 101.904ZM80.419 101.888C80.419 103.568 81.379 104.656 82.835 104.656C84.307 104.656 85.267 103.568 85.267 101.888C85.267 100.192 84.307 99.12 82.835 99.12C81.379 99.12 80.419 100.192 80.419 101.888ZM96.2605 104.688H96.5645V106H95.5725C94.9005 106 94.2925 105.744 94.1645 104.96C93.7005 105.68 92.6925 106.16 91.4125 106.16C89.6045 106.16 88.4525 105.216 88.4525 103.648C88.4525 102.256 89.3325 101.232 91.5725 101.232H93.9565V100.816C93.9565 99.616 93.2365 99.056 92.1645 99.056C91.0765 99.056 90.3725 99.6 90.3245 100.448H88.7085C88.7565 98.672 90.2125 97.648 92.2285 97.648C94.1485 97.648 95.7165 98.608 95.7165 100.832V104.144C95.7165 104.592 95.8925 104.688 96.2605 104.688ZM93.9565 102.768V102.432H91.8125C90.6285 102.432 90.2605 102.96 90.2605 103.568C90.2605 104.4 90.9165 104.768 91.8125 104.768C93.0285 104.768 93.9565 104.112 93.9565 102.768ZM104.347 94.112H106.107V106H104.507L104.363 104.752C103.867 105.584 102.795 106.16 101.531 106.16C99.2746 106.16 97.6426 104.592 97.6426 101.92C97.6426 99.168 99.3546 97.632 101.531 97.632C102.811 97.632 103.851 98.176 104.347 99.008V94.112ZM101.883 104.608C103.259 104.608 104.315 103.616 104.315 101.92C104.315 100.24 103.259 99.184 101.883 99.2C100.443 99.2 99.4506 100.256 99.4506 101.92C99.4506 103.616 100.459 104.608 101.883 104.608ZM113.163 94.608V106H111.355V94.608H113.163ZM124.537 97.648C126.265 97.648 127.609 98.768 127.609 100.896V106H125.833V101.216C125.833 99.824 125.177 99.232 124.137 99.232C123.145 99.232 122.377 99.856 122.329 101.264V106H120.617V101.328C120.617 99.904 119.977 99.232 118.937 99.232C117.801 99.232 117.097 99.936 117.097 101.248V106H115.353V97.808H116.937L117.145 98.736C117.577 98.016 118.393 97.648 119.353 97.648C120.537 97.648 121.497 98.144 121.977 99.136C122.457 98.096 123.513 97.648 124.537 97.648ZM136.995 104.688H137.299V106H136.307C135.635 106 135.027 105.744 134.899 104.96C134.435 105.68 133.427 106.16 132.147 106.16C130.339 106.16 129.187 105.216 129.187 103.648C129.187 102.256 130.067 101.232 132.307 101.232H134.691V100.816C134.691 99.616 133.971 99.056 132.899 99.056C131.811 99.056 131.107 99.6 131.059 100.448H129.443C129.491 98.672 130.947 97.648 132.963 97.648C134.883 97.648 136.451 98.608 136.451 100.832V104.144C136.451 104.592 136.627 104.688 136.995 104.688ZM134.691 102.768V102.432H132.547C131.363 102.432 130.995 102.96 130.995 103.568C130.995 104.4 131.651 104.768 132.547 104.768C133.763 104.768 134.691 104.112 134.691 102.768ZM144.795 97.808H146.347V105.488C146.347 107.872 144.747 109.36 142.315 109.36C140.251 109.36 138.763 108.224 138.491 106.512H140.235C140.491 107.456 141.307 107.92 142.331 107.92C143.787 107.92 144.635 107.056 144.635 105.776V104.496C144.171 105.328 143.163 105.824 141.963 105.824C139.835 105.824 138.283 104.272 138.283 101.744C138.283 99.184 139.835 97.648 141.979 97.648C143.179 97.648 144.107 98.128 144.619 98.944L144.795 97.808ZM142.331 104.288C143.691 104.288 144.603 103.28 144.603 101.76C144.603 100.24 143.707 99.184 142.331 99.184C140.955 99.184 140.091 100.24 140.091 101.76C140.091 103.28 140.955 104.288 142.331 104.288ZM156.239 101.728V102.384H149.967C149.999 103.92 151.007 104.72 152.287 104.72C153.247 104.72 154.047 104.272 154.383 103.376H156.159C155.727 105.04 154.255 106.16 152.255 106.16C149.807 106.16 148.191 104.464 148.191 101.888C148.191 99.328 149.807 97.632 152.239 97.632C154.623 97.632 156.239 99.264 156.239 101.728ZM152.239 99.024C151.071 99.024 150.111 99.744 149.983 101.168H154.463C154.367 99.744 153.423 99.024 152.239 99.024Z" fill="#3439CA"/>
</g>
</svg>
